<svg xmlns="http://www.w3.org/2000/svg" width="129" height="128" fill="none"><g clip-path="url(#a)"><path fill="url(#b)" d="M98.533 0h-68c-16.568 0-30 13.431-30 30v68c0 16.569 13.432 30 30 30h68c16.569 0 30-13.431 30-30V30c0-16.569-13.431-30-30-30Z"/><path fill="#31274A" fill-rule="evenodd" d="M79.393 16.506c.817 1.014 1.233 2.382 2.066 5.118l18.198 59.78A75.75 75.75 0 0 0 77.9 74.04l-11.848-40.04a1.544 1.544 0 0 0-2.96.004L51.388 74.019a75.749 75.749 0 0 0-21.854 7.376L47.82 21.611c.836-2.733 1.253-4.098 2.07-5.11a6.72 6.72 0 0 1 2.725-2.016C53.822 14 55.25 14 58.107 14h13.061c2.86 0 4.29 0 5.499.486a6.723 6.723 0 0 1 2.726 2.02Z" clip-rule="evenodd"/><path fill="#FF5D01" fill-rule="evenodd" d="M81.57 84.25c-3 2.565-8.988 4.314-15.885 4.314-8.466 0-15.561-2.635-17.444-6.18-.672 2.032-.824 4.356-.824 5.842 0 0-.443 7.293 4.629 12.365a4.77 4.77 0 0 1 4.769-4.77c4.514 0 4.509 3.939 4.505 7.135v.285c0 4.85 2.964 9.007 7.179 10.759a9.773 9.773 0 0 1-.983-4.286c0-4.625 2.716-6.348 5.872-8.349 2.511-1.593 5.301-3.362 7.224-6.912a13.029 13.029 0 0 0 1.573-6.227c0-1.386-.216-2.722-.615-3.977Z" clip-rule="evenodd"/><path fill="url(#c)" fill-rule="evenodd" d="M81.57 84.25c-3 2.565-8.988 4.314-15.885 4.314-8.466 0-15.561-2.635-17.444-6.18-.672 2.032-.824 4.356-.824 5.842 0 0-.443 7.293 4.629 12.365a4.77 4.77 0 0 1 4.769-4.77c4.514 0 4.509 3.939 4.505 7.135v.285c0 4.85 2.964 9.007 7.179 10.759a9.773 9.773 0 0 1-.983-4.286c0-4.625 2.716-6.348 5.872-8.349 2.511-1.593 5.301-3.362 7.224-6.912a13.029 13.029 0 0 0 1.573-6.227c0-1.386-.216-2.722-.615-3.977Z" clip-rule="evenodd"/></g><defs><linearGradient id="b" x1="64.533" x2="64.533" y1="0" y2="128" gradientUnits="userSpaceOnUse"><stop offset=".193" stop-color="#FCB3B2"/><stop offset="1" stop-color="#C587EE"/></linearGradient><linearGradient id="c" x1="95.078" x2="77.316" y1="63.383" y2="100.566" gradientUnits="userSpaceOnUse"><stop stop-color="#FF1639"/><stop offset="1" stop-color="#FF1639" stop-opacity="0"/></linearGradient><clipPath id="a"><path fill="#fff" d="M.533 0h128v128h-128z"/></clipPath></defs></svg>