<svg xmlns="http://www.w3.org/2000/svg" width="128" height="128" fill="none"><g clip-path="url(#a)"><path fill="#F4F2ED" d="M98 0H30C13.431 0 0 13.431 0 30v68c0 16.569 13.431 30 30 30h68c16.569 0 30-13.431 30-30V30c0-16.569-13.431-30-30-30Z"/><mask id="b" width="100" height="100" x="14" y="14" maskUnits="userSpaceOnUse" style="mask-type:luminance"><path fill="#fff" d="M14 14h100v100H14V14Z"/></mask><g mask="url(#b)"><path fill="#fff" d="M39.5 85.875h66.178V67.562l-12.572-7.209-2.168-.938-51.438.354v26.106Z"/><path fill="#F38020" d="M82.787 83.444c.616-2.11.382-4.044-.643-5.481-.938-1.32-2.522-2.082-4.425-2.17l-36.078-.468a.67.67 0 0 1-.556-.294c-.119-.175-.148-.406-.088-.644a.986.986 0 0 1 .85-.644l36.4-.468c4.313-.207 9-3.694 10.638-7.969l2.08-5.421c.092-.223.114-.469.063-.704C88.684 48.572 79.215 40.66 67.903 40.66c-10.438 0-19.281 6.74-22.45 16.093a10.815 10.815 0 0 0-7.475-2.081c-5.013.5-9.063 4.513-9.525 9.525a11.2 11.2 0 0 0 .262 3.721A15.125 15.125 0 0 0 14 83.063c0 .731.063 1.469.147 2.198a.725.725 0 0 0 .703.615h66.588a.905.905 0 0 0 .85-.644l.5-1.787Z"/><path fill="#FAAE40" d="m94.275 60.26-1 .03c-.235 0-.438.175-.532.407l-1.405 4.894c-.616 2.109-.382 4.044.643 5.481.938 1.319 2.522 2.081 4.425 2.168l7.679.47a.67.67 0 0 1 .556.293.813.813 0 0 1 .087.644.984.984 0 0 1-.85.643l-8 .47c-4.338.206-9 3.693-10.638 7.968l-.587 1.494c-.119.294.087.588.406.588h27.491a.723.723 0 0 0 .703-.529c.488-1.733.739-3.524.747-5.325a19.75 19.75 0 0 0-19.725-19.694"/></g></g><defs><clipPath id="a"><path fill="#fff" d="M0 0h128v128H0z"/></clipPath></defs></svg>