<svg xmlns="http://www.w3.org/2000/svg" width="129" height="128" fill="none"><g clip-path="url(#a)"><mask id="b" width="129" height="128" x="0" y="0" maskUnits="userSpaceOnUse" style="mask-type:luminance"><path fill="#fff" d="M.066 0h128v128h-128V0Z"/></mask><g mask="url(#b)"><path fill="#F4F2ED" d="M98.066 0h-68c-16.568 0-30 13.431-30 30v68c0 16.568 13.432 30 30 30h68c16.569 0 30-13.432 30-30V30c0-16.569-13.431-30-30-30Z"/><path fill="#1B1E2E" d="M50.996 54.84c3.489 0 6.324 1.865 7.777 5.105l.11.255 5.85-1.992-.117-.301c-2.263-5.533-7.487-8.965-13.62-8.965-4.316 0-7.824 1.383-10.722 4.232-2.88 2.831-4.334 6.39-4.334 10.576 0 4.16 1.463 7.7 4.334 10.521 2.898 2.849 6.406 4.232 10.722 4.232 6.133 0 11.348-3.44 13.62-8.965l.118-.3-5.86-1.993-.1.264c-1.31 3.195-4.217 5.097-7.778 5.097-2.426 0-4.48-.847-6.097-2.521-1.645-1.694-2.472-3.832-2.472-6.335 0-2.521.81-4.614 2.472-6.389 1.626-1.675 3.67-2.521 6.097-2.521Z"/><path fill="url(#c)" d="m76.4 105.042-1.744-5.76c15.737-4.788 26.314-19.068 26.314-35.532 0-4.541-.809-8.983-2.408-13.188l5.615-2.139a42.93 42.93 0 0 1 2.808 15.336c-.009 19.122-12.294 35.713-30.584 41.283Z"/><path fill="#69D3A7" d="M99.344 52.865c-4.807-15.709-19.081-26.258-35.527-26.258-2.236 0-4.471.2-6.651.592l-1.063-5.925a43.654 43.654 0 0 1 7.713-.692c19.1 0 35.682 12.26 41.27 30.508l-5.742 1.775Z"/><path fill="url(#d)" d="M23.42 78.968a42.928 42.928 0 0 1-2.763-15.218c0-22.298 16.71-40.765 38.87-42.949l.591 5.989c-19.072 1.884-33.455 17.775-33.455 36.96 0 4.505.8 8.92 2.371 13.097l-5.615 2.12Z"/><path fill="#1B1E2E" d="m87.64 49.489-8.332 21.15-8.395-21.15h-6.87L75.82 78.358l-8.577 20.841 6.006 1.202 20.88-50.912h-6.487Z"/><path fill="url(#e)" d="m68.323 96.579-1.263 3.067c-.29.701-.954 1.183-1.7 1.21-.517.018-1.026.037-1.553.037-16.491 0-31.175-11.058-35.709-26.895l-5.778 1.656c5.27 18.394 22.325 31.246 41.478 31.255h.01c.599 0 1.198-.009 1.798-.037 3.08-.127 5.833-2.066 7.015-4.933l1.708-4.159-6.006-1.201Z"/></g></g><defs><linearGradient id="c" x1="110.291" x2="71.717" y1="64.023" y2="88.957" gradientUnits="userSpaceOnUse"><stop offset=".081" stop-color="#69D3A7"/><stop offset="1" stop-color="#69D3A7" stop-opacity="0"/></linearGradient><linearGradient id="d" x1="49.449" x2="25.174" y1="21.128" y2="72.529" gradientUnits="userSpaceOnUse"><stop stop-color="#69D3A7"/><stop offset=".823" stop-color="#2AB586"/><stop offset="1" stop-color="#1CAE7F"/></linearGradient><linearGradient id="e" x1="20.596" x2="84.097" y1="83.513" y2="103.409" gradientUnits="userSpaceOnUse"><stop offset=".077" stop-color="#1CAE7F"/><stop offset=".164" stop-color="#1CA379"/><stop offset=".316" stop-color="#1C8568"/><stop offset=".516" stop-color="#1B554D"/><stop offset=".719" stop-color="#1B1E2E"/></linearGradient><clipPath id="a"><path fill="#fff" d="M.066 0h128v128h-128z"/></clipPath></defs></svg>