<svg xmlns="http://www.w3.org/2000/svg" width="128" height="128" fill="none"><g clip-path="url(#a)"><path fill="#2B2E3A" d="M98 0H30C13.431 0 0 13.431 0 30v68c0 16.569 13.431 30 30 30h68c16.569 0 30-13.431 30-30V30c0-16.569-13.431-30-30-30Z"/><path fill="#9FEAF9" d="M50.384 35.386c-13.002-2.368-23.284.11-27.381 7.207-3.058 5.296-2.183 12.318 2.12 19.823a1.335 1.335 0 0 0 2.462-.303 1.334 1.334 0 0 0-.149-1.023c-3.876-6.761-4.63-12.82-2.123-17.163 3.404-5.895 12.573-8.106 24.593-5.917a1.334 1.334 0 0 0 .478-2.624Zm-18.5 36.154c5.258 5.777 12.088 11.197 19.879 15.694 18.861 10.89 38.941 13.8 48.837 7.053a1.332 1.332 0 0 0-.76-2.449c-.266.006-.525.091-.743.246-8.856 6.038-27.93 3.273-46.001-7.16-7.557-4.363-14.171-9.61-19.239-15.18a1.337 1.337 0 0 0-1.888-.092 1.333 1.333 0 0 0-.085 1.888Z"/><path fill="#9FEAF9" d="M97.443 69.918c8.514-10.059 11.487-20.175 7.398-27.257-3.009-5.211-9.37-7.962-17.823-8.072a1.333 1.333 0 0 0-.034 2.666c7.602.099 13.082 2.47 15.548 6.74 3.396 5.883.745 14.904-7.124 24.2a1.33 1.33 0 0 0-.18 1.48 1.325 1.325 0 0 0 1.306.72 1.35 1.35 0 0 0 .91-.477ZM75.563 35.83c-7.698 1.65-15.892 4.875-23.761 9.418C32.33 56.489 19.629 73.066 21.393 85.085a1.33 1.33 0 0 0 1.252 1.155 1.33 1.33 0 0 0 1.145-.543 1.33 1.33 0 0 0 .242-1c-1.567-10.672 10.473-26.384 29.103-37.14 7.634-4.407 15.568-7.53 22.986-9.12a1.335 1.335 0 0 0-.033-2.622 1.35 1.35 0 0 0-.525.015Z"/><path fill="#9FEAF9" d="M44.018 93.418c4.452 12.43 11.734 20.083 19.923 20.083 5.973 0 11.498-4.071 15.808-11.239a1.331 1.331 0 0 0-.057-1.493 1.341 1.341 0 0 0-.883-.531 1.344 1.344 0 0 0-.998.258c-.14.106-.259.24-.348.392-3.872 6.442-8.629 9.946-13.521 9.946-6.803 0-13.298-6.826-17.413-18.315a1.33 1.33 0 0 0-1.457-.897 1.33 1.33 0 0 0-1.018.763 1.34 1.34 0 0 0-.036 1.033Zm40.661-2.432c2.305-7.364 3.543-15.859 3.543-24.711 0-22.09-7.732-41.132-18.744-46.021a1.334 1.334 0 0 0-1.082 2.437c9.822 4.361 17.159 22.433 17.159 43.584 0 8.588-1.199 16.815-3.42 23.915a1.335 1.335 0 0 0 1.893 1.593 1.338 1.338 0 0 0 .651-.797Zm25.112-1.306a6.381 6.381 0 1 0-12.763 0 6.381 6.381 0 0 0 12.763 0Zm-2.667 0c0 .488-.096.971-.283 1.422a3.701 3.701 0 0 1-2.01 2.01 3.717 3.717 0 0 1-5.136-3.432 3.718 3.718 0 0 1 2.293-3.43 3.718 3.718 0 0 1 4.854 2.008c.186.451.283.934.282 1.422Zm-82.742 6.382a6.381 6.381 0 1 0 0-12.763 6.381 6.381 0 0 0 0 12.763Zm0-2.667a3.715 3.715 0 1 1 .001-7.43 3.715 3.715 0 0 1-.002 7.43Z"/><path fill="#9FEAF9" d="M63.942 26.763a6.381 6.381 0 1 0 0-12.763 6.381 6.381 0 0 0 0 12.763Zm0-2.667a3.715 3.715 0 1 1 0-7.43 3.715 3.715 0 0 1 0 7.43Zm.974 46.691a4.617 4.617 0 1 1-1.95-9.026 4.617 4.617 0 0 1 1.95 9.026Z"/></g><defs><clipPath id="a"><path fill="#fff" d="M0 0h128v128H0z"/></clipPath></defs></svg>