<svg width="128" height="128" viewBox="0 0 128 128" fill="none" xmlns="http://www.w3.org/2000/svg">
<path d="M28.4015 91.0471C28.4015 91.0471 28.4015 90.5922 28.4015 89.6824V86.5294V83.3765V82.0118H29.7662H32.9191H36.0721H37.4368C37.4368 82.0118 37.4368 82.4667 37.4368 83.3765V86.5294V89.6824V91.0471C37.4368 91.0471 36.9819 91.0471 36.0721 91.0471H32.9191H29.7662H28.4015ZM34.0485 85.4C34.0485 85.4 34.0485 84.9451 34.0485 84.0353V80.8824V77.7294V76.3647H35.4132H38.5662H41.7191H43.0838C43.0838 76.3647 43.0838 76.8196 43.0838 77.7294V80.8824V84.0353V85.4C43.0838 85.4 42.6289 85.4 41.7191 85.4H38.5662H35.4132H34.0485ZM39.6956 79.7529C39.6956 79.7529 39.6956 79.298 39.6956 78.3882V75.2353V72.0824V70.7176H41.0603H44.2132H47.3662H48.7309C48.7309 70.7176 48.7309 71.1725 48.7309 72.0824V75.2353V78.3882V79.7529C48.7309 79.7529 48.276 79.7529 47.3662 79.7529H44.2132H41.0603H39.6956ZM45.3426 74.1059C45.3426 74.1059 45.3426 73.651 45.3426 72.7412V69.5882V66.4353V65.0706H46.7074H49.8603H53.0132H54.3779C54.3779 65.0706 54.3779 65.5255 54.3779 66.4353V69.5882V72.7412V74.1059C54.3779 74.1059 53.923 74.1059 53.0132 74.1059H49.8603H46.7074H45.3426ZM39.6956 68.4588C39.6956 68.4588 39.6956 68.0039 39.6956 67.0941V63.9412V60.7882V59.4235H41.0603H44.2132H47.3662H48.7309C48.7309 59.4235 48.7309 59.8784 48.7309 60.7882V63.9412V67.0941V68.4588C48.7309 68.4588 48.276 68.4588 47.3662 68.4588H44.2132H41.0603H39.6956ZM34.0485 62.8118C34.0485 62.8118 34.0485 62.3569 34.0485 61.4471V58.2941V55.1412V53.7765H35.4132H38.5662H41.7191H43.0838C43.0838 53.7765 43.0838 54.2314 43.0838 55.1412V58.2941V61.4471V62.8118C43.0838 62.8118 42.6289 62.8118 41.7191 62.8118H38.5662H35.4132H34.0485ZM28.4015 57.1647C28.4015 57.1647 28.4015 56.7098 28.4015 55.8V52.6471V49.4941V48.1294H29.7662H32.9191H36.0721H37.4368C37.4368 48.1294 37.4368 48.5843 37.4368 49.4941V52.6471V55.8V57.1647C37.4368 57.1647 36.9819 57.1647 36.0721 57.1647H32.9191H29.7662H28.4015ZM59.4934 113.635C59.4934 113.635 59.4934 113.18 59.4934 112.271V109.118V105.965V104.6H60.8581H64.011H67.164H68.5287C68.5287 104.6 68.5287 105.055 68.5287 105.965V109.118V112.271V113.635C68.5287 113.635 68.0738 113.635 67.164 113.635H64.011H60.8581H59.4934ZM65.1404 113.635C65.1404 113.635 65.1404 113.18 65.1404 112.271V109.118V105.965V104.6H66.5051H69.6581H72.811H74.1757C74.1757 104.6 74.1757 105.055 74.1757 105.965V109.118V112.271V113.635C74.1757 113.635 73.7208 113.635 72.811 113.635H69.6581H66.5051H65.1404ZM70.7875 113.635C70.7875 113.635 70.7875 113.18 70.7875 112.271V109.118V105.965V104.6H72.1522H75.3051H78.4581H79.8228C79.8228 104.6 79.8228 105.055 79.8228 105.965V109.118V112.271V113.635C79.8228 113.635 79.3679 113.635 78.4581 113.635H75.3051H72.1522H70.7875ZM76.4346 113.635C76.4346 113.635 76.4346 113.18 76.4346 112.271V109.118V105.965V104.6H77.7993H80.9522H84.1051H85.4699C85.4699 104.6 85.4699 105.055 85.4699 105.965V109.118V112.271V113.635C85.4699 113.635 85.015 113.635 84.1051 113.635H80.9522H77.7993H76.4346ZM82.0816 113.635C82.0816 113.635 82.0816 113.18 82.0816 112.271V109.118V105.965V104.6H83.4463H86.5993H89.7522H91.1169C91.1169 104.6 91.1169 105.055 91.1169 105.965V109.118V112.271V113.635C91.1169 113.635 90.662 113.635 89.7522 113.635H86.5993H83.4463H82.0816ZM87.7287 113.635C87.7287 113.635 87.7287 113.18 87.7287 112.271V109.118V105.965V104.6H89.0934H92.2463H95.3993H96.764C96.764 104.6 96.764 105.055 96.764 105.965V109.118V112.271V113.635C96.764 113.635 96.3091 113.635 95.3993 113.635H92.2463H89.0934H87.7287ZM93.3757 113.635C93.3757 113.635 93.3757 113.18 93.3757 112.271V109.118V105.965V104.6H94.7404H97.8934H101.046H102.411C102.411 104.6 102.411 105.055 102.411 105.965V109.118V112.271V113.635C102.411 113.635 101.956 113.635 101.046 113.635H97.8934H94.7404H93.3757ZM99.0228 113.635C99.0228 113.635 99.0228 113.18 99.0228 112.271V109.118V105.965V104.6H100.388H103.54H106.693H108.058C108.058 104.6 108.058 105.055 108.058 105.965V109.118V112.271V113.635C108.058 113.635 107.603 113.635 106.693 113.635H103.54H100.388H99.0228Z" fill="url(#paint0_linear_43_56)"/>
<defs>
<linearGradient id="paint0_linear_43_56" x1="64" y1="0" x2="64" y2="128" gradientUnits="userSpaceOnUse">
<stop stop-color="#FCB483"/>
<stop offset="1" stop-color="#E05F06"/>
</linearGradient>
</defs>
</svg>
