<svg xmlns="http://www.w3.org/2000/svg" width="129" height="128" fill="none"><g clip-path="url(#a)"><path fill="#F4F2ED" d="M98.6 0h-68C14.03 0 .6 13.431.6 30v68c0 16.569 13.431 30 30 30h68c16.568 0 30-13.431 30-30V30c0-16.569-13.432-30-30-30Z"/><path fill="#EA4335" d="m81.104 46.195 8.693-8.693.58-3.66c-15.84-14.403-41.02-12.77-55.3 3.408-3.967 4.493-6.91 10.095-8.478 15.88l3.113-.439 17.385-2.867 1.342-1.372c7.733-8.493 20.808-9.636 29.737-2.41l2.928.153Z"/><path fill="#4285F4" d="M102.179 52.874a39.147 39.147 0 0 0-11.803-19.032l-12.2 12.2a21.687 21.687 0 0 1 7.96 17.203v2.165c5.997 0 10.858 4.861 10.858 10.858 0 5.996-4.861 10.736-10.858 10.736H64.39l-2.135 2.318v13.024l2.135 2.043h21.746c15.598.122 28.341-12.302 28.462-27.9a28.242 28.242 0 0 0-12.419-23.615Z"/><path fill="#34A853" d="M42.674 104.389H64.39V87.004H42.674c-1.537 0-3.056-.333-4.453-.976l-3.08.945-8.754 8.693-.762 2.959c4.909 3.706 10.898 5.79 17.049 5.764Z"/><path fill="#FBBC05" d="M42.674 47.995c-15.598.093-28.167 12.813-28.074 28.41a28.245 28.245 0 0 0 11.024 22.219l12.597-12.596c-5.465-2.47-7.894-8.902-5.425-14.366 2.47-5.465 8.901-7.894 14.365-5.425a10.86 10.86 0 0 1 5.425 5.425l12.597-12.597a28.209 28.209 0 0 0-22.51-11.071"/></g><defs><clipPath id="a"><path fill="#fff" d="M.6 0h128v128H.6z"/></clipPath></defs></svg>