<svg xmlns="http://www.w3.org/2000/svg" width="129" height="128" fill="none"><g clip-path="url(#a)"><path fill="#00B4E0" d="M98.733 0h-68c-16.568 0-30 13.431-30 30v68c0 16.569 13.432 30 30 30h68c16.569 0 30-13.431 30-30V30c0-16.569-13.431-30-30-30Z"/><path fill="#fff" d="M20.983 56.617c-.2 0-.25-.1-.15-.25l1.05-1.35c.1-.15.35-.25.55-.25h17.85c.2 0 .25.15.15.3l-.85 1.3c-.1.15-.35.3-.5.3l-18.1-.05Zm-7.55 4.6c-.2 0-.25-.1-.15-.25l1.05-1.35c.1-.15.35-.25.55-.25h22.8c.2 0 .3.15.25.3l-.4 1.2c-.05.2-.25.3-.45.3l-23.65.05Zm12.1 4.6c-.2 0-.25-.15-.15-.3l.7-1.25c.1-.15.3-.3.5-.3h10c.2 0 .3.15.3.35l-.1 1.2c0 .2-.2.35-.35.35l-10.9-.05Zm51.9-10.1c-3.15.8-5.3 1.4-8.4 2.2-.75.2-.8.25-1.45-.5-.75-.85-1.3-1.4-2.35-1.9-3.15-1.55-6.2-1.1-9.05.75-3.4 2.2-5.15 5.45-5.1 9.5.05 4 2.8 7.3 6.75 7.85 3.4.45 6.25-.75 8.5-3.3.45-.55.85-1.15 1.35-1.85h-9.65c-1.05 0-1.3-.65-.95-1.5.65-1.55 1.85-4.15 2.55-5.45.15-.3.5-.8 1.25-.8h18.2c-.1 1.35-.1 2.7-.3 4.05-.55 3.6-1.9 6.9-4.1 9.8-3.6 4.75-8.3 7.7-14.25 8.5-4.9.65-9.45-.3-13.45-3.3-3.7-2.8-5.8-6.5-6.35-11.1-.65-5.45.95-10.35 4.25-14.65 3.55-4.65 8.25-7.6 14-8.65 4.7-.85 9.2-.3 13.25 2.45 2.65 1.75 4.55 4.15 5.8 7.05.3.45.1.7-.5.85Z"/><path fill="#fff" d="M93.984 83.367c-4.55-.1-8.7-1.4-12.2-4.4-2.95-2.55-4.8-5.8-5.4-9.65-.9-5.65.65-10.65 4.05-15.1 3.65-4.8 8.05-7.3 14-8.35 5.1-.9 9.9-.4 14.25 2.55 3.95 2.7 6.4 6.35 7.05 11.15.85 6.75-1.1 12.25-5.75 16.95-3.3 3.35-7.35 5.45-12 6.4-1.35.25-2.7.3-4 .45Zm11.9-20.2c-.05-.65-.05-1.15-.15-1.65-.9-4.95-5.45-7.75-10.2-6.65-4.65 1.05-7.65 4-8.75 8.7-.9 3.9 1 7.85 4.6 9.45 2.75 1.2 5.5 1.05 8.15-.3 3.95-2.05 6.1-5.25 6.35-9.55Z"/></g><defs><clipPath id="a"><path fill="#fff" d="M.733 0h128v128h-128z"/></clipPath></defs></svg>