<svg xmlns="http://www.w3.org/2000/svg" width="129" height="128" fill="none"><g clip-path="url(#a)"><path fill="#F0DB4F" d="M98.2 0h-68C13.63 0 .2 13.431.2 30v68c0 16.569 13.431 30 30 30h68c16.568 0 30-13.431 30-30V30c0-16.569-13.432-30-30-30Z"/><path fill="#323330" d="m33.855 106.966 9.796-5.928c1.89 3.351 3.608 6.186 7.732 6.186 3.953 0 6.444-1.546 6.444-7.56v-40.9h12.03v41.07c0 12.458-7.303 18.129-17.959 18.129-9.622 0-15.208-4.983-18.043-10.998m42.535-1.288 9.794-5.67c2.579 4.21 5.93 7.303 11.858 7.303 4.984 0 8.162-2.492 8.162-5.929 0-4.124-3.265-5.585-8.764-7.99l-3.007-1.29c-8.678-3.694-14.435-8.334-14.435-18.129 0-9.021 6.874-15.895 17.614-15.895 7.647 0 13.146 2.663 17.098 9.623l-9.365 6.014c-2.063-3.694-4.296-5.154-7.733-5.154-3.522 0-5.756 2.233-5.756 5.154 0 3.609 2.234 5.07 7.389 7.305l3.006 1.288c10.225 4.382 15.982 8.85 15.982 18.902 0 10.827-8.506 16.755-19.934 16.755-11.169 0-18.387-5.327-21.909-12.287Z"/></g><defs><clipPath id="a"><path fill="#fff" d="M.2 0h128v128H.2z"/></clipPath></defs></svg>