<svg xmlns="http://www.w3.org/2000/svg" width="129" height="128" fill="none"><g clip-path="url(#a)"><path fill="#99424F" d="M98.8 0h-68C14.23 0 .8 13.431.8 30v68c0 16.569 13.431 30 30 30h68c16.568 0 30-13.431 30-30V30c0-16.569-13.432-30-30-30Z"/><path fill="#fff" d="M107.476 63.248c0-6.023-4.14-11.09-9.698-12.537L110.227 14H48.53L61.01 50.827c-5.386 1.564-9.352 6.543-9.352 12.449 0 4.343 2.171 8.193 5.472 10.568-1.303 1.853-2.808 3.561-4.517 5.182-3.213 3.011-6.774 5.327-10.625 6.862-3.474-2.346-4.98-6.486-3.619-10.192 5.298-1.62 9.149-6.572 9.149-12.391 0-7.151-5.82-12.941-12.942-12.941-7.15 0-12.97 5.819-12.97 12.97 0 3.532 1.448 6.775 3.764 9.091-.203.406-.405.81-.608 1.245-1.94 3.995-4.14 8.512-4.98 13.579-1.68 10.133 1.071 18.268 7.701 22.871 3.735 2.577 7.846 3.88 12.276 3.88 7.614 0 15.344-3.821 22.814-7.527 5.327-2.635 10.828-5.385 16.242-6.718 1.998-.492 4.082-.781 6.283-1.1 4.458-.636 9.062-1.302 13.202-3.706 4.835-2.808 8.135-7.498 9.091-12.883.723-4.14 0-8.309-1.853-11.957 1.245-1.998 1.939-4.343 1.939-6.861Zm-5.645 0a7.302 7.302 0 0 1-7.296 7.295 7.302 7.302 0 0 1-6.34-10.915c.236-.408.508-.796.81-1.158.29-.347.637-.666 1.013-.955l.03-.029c.23-.174.492-.347.752-.521 0 0 .03 0 .03-.03.115-.057.23-.144.346-.202.03 0 .058-.029.087-.029.116-.058.26-.115.406-.173.144-.059.29-.117.405-.175.029 0 .058-.029.087-.029.116-.028.231-.086.347-.115.03 0 .087-.029.116-.029.145-.029.26-.058.405-.087h.03l.434-.086c.029 0 .086 0 .115-.03.116 0 .232-.028.348-.028h.145c.144 0 .29-.03.463-.03h.376c.116 0 .203 0 .319.03h.058c.231.029.463.058.694.115 3.3.695 5.82 3.648 5.82 7.18ZM56.608 19.79h45.541L91.698 50.623c-.435.087-.869.232-1.303.377L79.393 28.563l-11.03 22.293c-.435-.145-.898-.232-1.361-.319L56.608 19.792Zm20.7 40.938c-.55-2.722-1.94-5.154-3.908-6.949l5.993-12.102 6.05 12.363c-1.794 1.795-3.097 4.082-3.618 6.688h-4.517Zm-14.504-4.575c.144-.029.26-.058.405-.087h.087c.116-.029.231-.029.347-.057h.116c.116 0 .203-.03.318-.03h1.13c.115 0 .202.03.29.03.057 0 .086 0 .144.028.116.029.203.029.318.058a.22.22 0 0 1 .116.029c.145.029.29.058.405.087h.03c.115.029.231.058.347.115.029 0 .058.03.116.03.087.029.202.057.29.115.028 0 .057.03.086.03.116.057.232.087.347.144h.03c.144.058.26.116.376.203h.029c.116.058.231.145.347.203.03 0 .03.029.058.029.116.057.203.144.319.202l.028.029c.348.26.666.55.985.84l.029.029c.29.318.579.666.81 1.042a7.302 7.302 0 0 1-6.109 11.291 7.302 7.302 0 0 1-7.295-7.296c-.03-3.387 2.316-6.254 5.5-7.064Zm-28.49-.203a7.302 7.302 0 0 1 7.297 7.297 7.302 7.302 0 0 1-7.296 7.295 7.302 7.302 0 0 1-7.296-7.296 7.303 7.303 0 0 1 7.296-7.295Zm67.343 25.101c-.637 3.706-2.924 6.949-6.283 8.889-3.155 1.824-7.035 2.403-11.117 2.982-2.23.319-4.574.666-6.833 1.216-6.022 1.477-11.812 4.371-17.429 7.151-7.18 3.561-13.955 6.92-20.237 6.92-3.272 0-6.196-.927-8.975-2.867-6.37-4.401-6.051-12.651-5.298-17.168.695-4.227 2.634-8.194 4.487-11.986.116-.232.203-.434.319-.666.648.234 1.317.409 1.997.521-1.1 6.138 2.027 12.478 8.107 15.605l1.1.579 1.187-.434c5.067-1.795 9.757-4.72 13.897-8.628 2.345-2.2 4.343-4.574 6.022-7.151.666.116 1.332.145 1.998.145 6.022 0 11.088-4.14 12.536-9.699h4.864c1.447 5.588 6.514 9.699 12.536 9.699 2.403 0 4.632-.666 6.543-1.795.753 2.171.984 4.43.579 6.688Z"/></g><defs><clipPath id="a"><path fill="#fff" d="M.8 0h128v128H.8z"/></clipPath></defs></svg>