<svg width="120" height="80" viewBox="0 0 120 80" fill="none" xmlns="http://www.w3.org/2000/svg">
<path d="M12.7994 53.7059C12.7994 53.7059 12.7994 53.5163 12.7994 53.1373V51.8235V50.5098V49.9412H13.368H14.6818H15.9955H16.5641C16.5641 49.9412 16.5641 50.1307 16.5641 50.5098V51.8235V53.1373V53.7059C16.5641 53.7059 16.3746 53.7059 15.9955 53.7059H14.6818H13.368H12.7994ZM23.3876 53.7059C23.3876 53.7059 23.3876 53.5163 23.3876 53.1373V51.8235V50.5098V49.9412H23.9563H25.27H26.5837H27.1523C27.1523 49.9412 27.1523 50.1307 27.1523 50.5098V51.8235V53.1373V53.7059C27.1523 53.7059 26.9628 53.7059 26.5837 53.7059H25.27H23.9563H23.3876ZM12.7994 51.3529C12.7994 51.3529 12.7994 51.1634 12.7994 50.7843V49.4706V48.1569V47.5882H13.368H14.6818H15.9955H16.5641C16.5641 47.5882 16.5641 47.7778 16.5641 48.1569V49.4706V50.7843V51.3529C16.5641 51.3529 16.3746 51.3529 15.9955 51.3529H14.6818H13.368H12.7994ZM22.2112 51.3529C22.2112 51.3529 22.2112 51.1634 22.2112 50.7843V49.4706V48.1569V47.5882H22.7798H24.0935H25.4072H25.9759C25.9759 47.5882 25.9759 47.7778 25.9759 48.1569V49.4706V50.7843V51.3529C25.9759 51.3529 25.7863 51.3529 25.4072 51.3529H24.0935H22.7798H22.2112ZM12.7994 49C12.7994 49 12.7994 48.8105 12.7994 48.4314V47.1176V45.8039V45.2353H13.368H14.6818H15.9955H16.5641C16.5641 45.2353 16.5641 45.4248 16.5641 45.8039V47.1176V48.4314V49C16.5641 49 16.3746 49 15.9955 49H14.6818H13.368H12.7994ZM21.0347 49C21.0347 49 21.0347 48.8105 21.0347 48.4314V47.1176V45.8039V45.2353H21.6033H22.9171H24.2308H24.7994C24.7994 45.2353 24.7994 45.4248 24.7994 45.8039V47.1176V48.4314V49C24.7994 49 24.6099 49 24.2308 49H22.9171H21.6033H21.0347ZM12.7994 46.6471C12.7994 46.6471 12.7994 46.4575 12.7994 46.0784V44.7647V43.451V42.8824H13.368H14.6818H15.9955H16.5641C16.5641 42.8824 16.5641 43.0719 16.5641 43.451V44.7647V46.0784V46.6471C16.5641 46.6471 16.3746 46.6471 15.9955 46.6471H14.6818H13.368H12.7994ZM19.8582 46.6471C19.8582 46.6471 19.8582 46.4575 19.8582 46.0784V44.7647V43.451V42.8824H20.4269H21.7406H23.0543H23.6229C23.6229 42.8824 23.6229 43.0719 23.6229 43.451V44.7647V46.0784V46.6471C23.6229 46.6471 23.4334 46.6471 23.0543 46.6471H21.7406H20.4269H19.8582ZM12.7994 44.2941C12.7994 44.2941 12.7994 44.1046 12.7994 43.7255V42.4118V41.098V40.5294H13.368H14.6818H15.9955H16.5641C16.5641 40.5294 16.5641 40.719 16.5641 41.098V42.4118V43.7255V44.2941C16.5641 44.2941 16.3746 44.2941 15.9955 44.2941H14.6818H13.368H12.7994ZM18.6818 44.2941C18.6818 44.2941 18.6818 44.1046 18.6818 43.7255V42.4118V41.098V40.5294H19.2504H20.5641H21.8778H22.4465C22.4465 40.5294 22.4465 40.719 22.4465 41.098V42.4118V43.7255V44.2941C22.4465 44.2941 22.2569 44.2941 21.8778 44.2941H20.5641H19.2504H18.6818ZM12.7994 41.9412C12.7994 41.9412 12.7994 41.7516 12.7994 41.3725V40.0588V38.7451V38.1765H13.368H14.6818H15.9955H16.5641C16.5641 38.1765 16.5641 38.366 16.5641 38.7451V40.0588V41.3725V41.9412C16.5641 41.9412 16.3746 41.9412 15.9955 41.9412H14.6818H13.368H12.7994ZM15.1523 41.9412C15.1523 41.9412 15.1523 41.7516 15.1523 41.3725V40.0588V38.7451V38.1765H15.721H17.0347H18.3484H18.9171C18.9171 38.1765 18.9171 38.366 18.9171 38.7451V40.0588V41.3725V41.9412C18.9171 41.9412 18.7275 41.9412 18.3484 41.9412H17.0347H15.721H15.1523ZM17.5053 41.9412C17.5053 41.9412 17.5053 41.7516 17.5053 41.3725V40.0588V38.7451V38.1765H18.0739H19.3876H20.7014H21.27C21.27 38.1765 21.27 38.366 21.27 38.7451V40.0588V41.3725V41.9412C21.27 41.9412 21.0804 41.9412 20.7014 41.9412H19.3876H18.0739H17.5053ZM12.7994 39.5882C12.7994 39.5882 12.7994 39.3987 12.7994 39.0196V37.7059V36.3922V35.8235H13.368H14.6818H15.9955H16.5641C16.5641 35.8235 16.5641 36.0131 16.5641 36.3922V37.7059V39.0196V39.5882C16.5641 39.5882 16.3746 39.5882 15.9955 39.5882H14.6818H13.368H12.7994ZM18.6818 39.5882C18.6818 39.5882 18.6818 39.3987 18.6818 39.0196V37.7059V36.3922V35.8235H19.2504H20.5641H21.8778H22.4465C22.4465 35.8235 22.4465 36.0131 22.4465 36.3922V37.7059V39.0196V39.5882C22.4465 39.5882 22.2569 39.5882 21.8778 39.5882H20.5641H19.2504H18.6818ZM12.7994 37.2353C12.7994 37.2353 12.7994 37.0457 12.7994 36.6667V35.3529V34.0392V33.4706H13.368H14.6818H15.9955H16.5641C16.5641 33.4706 16.5641 33.6601 16.5641 34.0392V35.3529V36.6667V37.2353C16.5641 37.2353 16.3746 37.2353 15.9955 37.2353H14.6818H13.368H12.7994ZM19.8582 37.2353C19.8582 37.2353 19.8582 37.0457 19.8582 36.6667V35.3529V34.0392V33.4706H20.4269H21.7406H23.0543H23.6229C23.6229 33.4706 23.6229 33.6601 23.6229 34.0392V35.3529V36.6667V37.2353C23.6229 37.2353 23.4334 37.2353 23.0543 37.2353H21.7406H20.4269H19.8582ZM12.7994 34.8824C12.7994 34.8824 12.7994 34.6928 12.7994 34.3137V33V31.6863V31.1176H13.368H14.6818H15.9955H16.5641C16.5641 31.1176 16.5641 31.3072 16.5641 31.6863V33V34.3137V34.8824C16.5641 34.8824 16.3746 34.8824 15.9955 34.8824H14.6818H13.368H12.7994ZM21.0347 34.8824C21.0347 34.8824 21.0347 34.6928 21.0347 34.3137V33V31.6863V31.1176H21.6033H22.9171H24.2308H24.7994C24.7994 31.1176 24.7994 31.3072 24.7994 31.6863V33V34.3137V34.8824C24.7994 34.8824 24.6099 34.8824 24.2308 34.8824H22.9171H21.6033H21.0347ZM12.7994 32.5294C12.7994 32.5294 12.7994 32.3399 12.7994 31.9608V30.6471V29.3333V28.7647H13.368H14.6818H15.9955H16.5641C16.5641 28.7647 16.5641 28.9542 16.5641 29.3333V30.6471V31.9608V32.5294C16.5641 32.5294 16.3746 32.5294 15.9955 32.5294H14.6818H13.368H12.7994ZM22.2112 32.5294C22.2112 32.5294 22.2112 32.3399 22.2112 31.9608V30.6471V29.3333V28.7647H22.7798H24.0935H25.4072H25.9759C25.9759 28.7647 25.9759 28.9542 25.9759 29.3333V30.6471V31.9608V32.5294C25.9759 32.5294 25.7863 32.5294 25.4072 32.5294H24.0935H22.7798H22.2112ZM12.7994 30.1765C12.7994 30.1765 12.7994 29.9869 12.7994 29.6078V28.2941V26.9804V26.4118H13.368H14.6818H15.9955H16.5641C16.5641 26.4118 16.5641 26.6013 16.5641 26.9804V28.2941V29.6078V30.1765C16.5641 30.1765 16.3746 30.1765 15.9955 30.1765H14.6818H13.368H12.7994ZM23.3876 30.1765C23.3876 30.1765 23.3876 29.9869 23.3876 29.6078V28.2941V26.9804V26.4118H23.9563H25.27H26.5837H27.1523C27.1523 26.4118 27.1523 26.6013 27.1523 26.9804V28.2941V29.6078V30.1765C27.1523 30.1765 26.9628 30.1765 26.5837 30.1765H25.27H23.9563H23.3876ZM29.2838 53.7059C29.2838 53.7059 29.2838 53.5163 29.2838 53.1373V51.8235V50.5098V49.9412H29.8524H31.1661H32.4799H33.0485C33.0485 49.9412 33.0485 50.1307 33.0485 50.5098V51.8235V53.1373V53.7059C33.0485 53.7059 32.8589 53.7059 32.4799 53.7059H31.1661H29.8524H29.2838ZM38.6955 53.7059C38.6955 53.7059 38.6955 53.5163 38.6955 53.1373V51.8235V50.5098V49.9412H39.2642H40.5779H41.8916H42.4602C42.4602 49.9412 42.4602 50.1307 42.4602 50.5098V51.8235V53.1373V53.7059C42.4602 53.7059 42.2707 53.7059 41.8916 53.7059H40.5779H39.2642H38.6955ZM29.2838 51.3529C29.2838 51.3529 29.2838 51.1634 29.2838 50.7843V49.4706V48.1569V47.5882H29.8524H31.1661H32.4799H33.0485C33.0485 47.5882 33.0485 47.7778 33.0485 48.1569V49.4706V50.7843V51.3529C33.0485 51.3529 32.8589 51.3529 32.4799 51.3529H31.1661H29.8524H29.2838ZM38.6955 51.3529C38.6955 51.3529 38.6955 51.1634 38.6955 50.7843V49.4706V48.1569V47.5882H39.2642H40.5779H41.8916H42.4602C42.4602 47.5882 42.4602 47.7778 42.4602 48.1569V49.4706V50.7843V51.3529C42.4602 51.3529 42.2707 51.3529 41.8916 51.3529H40.5779H39.2642H38.6955ZM29.2838 49C29.2838 49 29.2838 48.8105 29.2838 48.4314V47.1176V45.8039V45.2353H29.8524H31.1661H32.4799H33.0485C33.0485 45.2353 33.0485 45.4248 33.0485 45.8039V47.1176V48.4314V49C33.0485 49 32.8589 49 32.4799 49H31.1661H29.8524H29.2838ZM38.6955 49C38.6955 49 38.6955 48.8105 38.6955 48.4314V47.1176V45.8039V45.2353H39.2642H40.5779H41.8916H42.4602C42.4602 45.2353 42.4602 45.4248 42.4602 45.8039V47.1176V48.4314V49C42.4602 49 42.2707 49 41.8916 49H40.5779H39.2642H38.6955ZM29.2838 46.6471C29.2838 46.6471 29.2838 46.4575 29.2838 46.0784V44.7647V43.451V42.8824H29.8524H31.1661H32.4799H33.0485C33.0485 42.8824 33.0485 43.0719 33.0485 43.451V44.7647V46.0784V46.6471C33.0485 46.6471 32.8589 46.6471 32.4799 46.6471H31.1661H29.8524H29.2838ZM38.6955 46.6471C38.6955 46.6471 38.6955 46.4575 38.6955 46.0784V44.7647V43.451V42.8824H39.2642H40.5779H41.8916H42.4602C42.4602 42.8824 42.4602 43.0719 42.4602 43.451V44.7647V46.0784V46.6471C42.4602 46.6471 42.2707 46.6471 41.8916 46.6471H40.5779H39.2642H38.6955ZM29.2838 44.2941C29.2838 44.2941 29.2838 44.1046 29.2838 43.7255V42.4118V41.098V40.5294H29.8524H31.1661H32.4799H33.0485C33.0485 40.5294 33.0485 40.719 33.0485 41.098V42.4118V43.7255V44.2941C33.0485 44.2941 32.8589 44.2941 32.4799 44.2941H31.1661H29.8524H29.2838ZM38.6955 44.2941C38.6955 44.2941 38.6955 44.1046 38.6955 43.7255V42.4118V41.098V40.5294H39.2642H40.5779H41.8916H42.4602C42.4602 40.5294 42.4602 40.719 42.4602 41.098V42.4118V43.7255V44.2941C42.4602 44.2941 42.2707 44.2941 41.8916 44.2941H40.5779H39.2642H38.6955ZM29.2838 41.9412C29.2838 41.9412 29.2838 41.7516 29.2838 41.3725V40.0588V38.7451V38.1765H29.8524H31.1661H32.4799H33.0485C33.0485 38.1765 33.0485 38.366 33.0485 38.7451V40.0588V41.3725V41.9412C33.0485 41.9412 32.8589 41.9412 32.4799 41.9412H31.1661H29.8524H29.2838ZM31.6367 41.9412C31.6367 41.9412 31.6367 41.7516 31.6367 41.3725V40.0588V38.7451V38.1765H32.2053H33.5191H34.8328H35.4014C35.4014 38.1765 35.4014 38.366 35.4014 38.7451V40.0588V41.3725V41.9412C35.4014 41.9412 35.2119 41.9412 34.8328 41.9412H33.5191H32.2053H31.6367ZM33.9897 41.9412C33.9897 41.9412 33.9897 41.7516 33.9897 41.3725V40.0588V38.7451V38.1765H34.5583H35.872H37.1857H37.7544C37.7544 38.1765 37.7544 38.366 37.7544 38.7451V40.0588V41.3725V41.9412C37.7544 41.9412 37.5648 41.9412 37.1857 41.9412H35.872H34.5583H33.9897ZM36.3426 41.9412C36.3426 41.9412 36.3426 41.7516 36.3426 41.3725V40.0588V38.7451V38.1765H36.9112H38.225H39.5387H40.1073C40.1073 38.1765 40.1073 38.366 40.1073 38.7451V40.0588V41.3725V41.9412C40.1073 41.9412 39.9178 41.9412 39.5387 41.9412H38.225H36.9112H36.3426ZM38.6955 41.9412C38.6955 41.9412 38.6955 41.7516 38.6955 41.3725V40.0588V38.7451V38.1765H39.2642H40.5779H41.8916H42.4602C42.4602 38.1765 42.4602 38.366 42.4602 38.7451V40.0588V41.3725V41.9412C42.4602 41.9412 42.2707 41.9412 41.8916 41.9412H40.5779H39.2642H38.6955ZM29.2838 39.5882C29.2838 39.5882 29.2838 39.3987 29.2838 39.0196V37.7059V36.3922V35.8235H29.8524H31.1661H32.4799H33.0485C33.0485 35.8235 33.0485 36.0131 33.0485 36.3922V37.7059V39.0196V39.5882C33.0485 39.5882 32.8589 39.5882 32.4799 39.5882H31.1661H29.8524H29.2838ZM38.6955 39.5882C38.6955 39.5882 38.6955 39.3987 38.6955 39.0196V37.7059V36.3922V35.8235H39.2642H40.5779H41.8916H42.4602C42.4602 35.8235 42.4602 36.0131 42.4602 36.3922V37.7059V39.0196V39.5882C42.4602 39.5882 42.2707 39.5882 41.8916 39.5882H40.5779H39.2642H38.6955ZM29.2838 37.2353C29.2838 37.2353 29.2838 37.0457 29.2838 36.6667V35.3529V34.0392V33.4706H29.8524H31.1661H32.4799H33.0485C33.0485 33.4706 33.0485 33.6601 33.0485 34.0392V35.3529V36.6667V37.2353C33.0485 37.2353 32.8589 37.2353 32.4799 37.2353H31.1661H29.8524H29.2838ZM38.6955 37.2353C38.6955 37.2353 38.6955 37.0457 38.6955 36.6667V35.3529V34.0392V33.4706H39.2642H40.5779H41.8916H42.4602C42.4602 33.4706 42.4602 33.6601 42.4602 34.0392V35.3529V36.6667V37.2353C42.4602 37.2353 42.2707 37.2353 41.8916 37.2353H40.5779H39.2642H38.6955ZM29.2838 34.8824C29.2838 34.8824 29.2838 34.6928 29.2838 34.3137V33V31.6863V31.1176H29.8524H31.1661H32.4799H33.0485C33.0485 31.1176 33.0485 31.3072 33.0485 31.6863V33V34.3137V34.8824C33.0485 34.8824 32.8589 34.8824 32.4799 34.8824H31.1661H29.8524H29.2838ZM38.6955 34.8824C38.6955 34.8824 38.6955 34.6928 38.6955 34.3137V33V31.6863V31.1176H39.2642H40.5779H41.8916H42.4602C42.4602 31.1176 42.4602 31.3072 42.4602 31.6863V33V34.3137V34.8824C42.4602 34.8824 42.2707 34.8824 41.8916 34.8824H40.5779H39.2642H38.6955ZM29.2838 32.5294C29.2838 32.5294 29.2838 32.3399 29.2838 31.9608V30.6471V29.3333V28.7647H29.8524H31.1661H32.4799H33.0485C33.0485 28.7647 33.0485 28.9542 33.0485 29.3333V30.6471V31.9608V32.5294C33.0485 32.5294 32.8589 32.5294 32.4799 32.5294H31.1661H29.8524H29.2838ZM38.6955 32.5294C38.6955 32.5294 38.6955 32.3399 38.6955 31.9608V30.6471V29.3333V28.7647H39.2642H40.5779H41.8916H42.4602C42.4602 28.7647 42.4602 28.9542 42.4602 29.3333V30.6471V31.9608V32.5294C42.4602 32.5294 42.2707 32.5294 41.8916 32.5294H40.5779H39.2642H38.6955ZM29.2838 30.1765C29.2838 30.1765 29.2838 29.9869 29.2838 29.6078V28.2941V26.9804V26.4118H29.8524H31.1661H32.4799H33.0485C33.0485 26.4118 33.0485 26.6013 33.0485 26.9804V28.2941V29.6078V30.1765C33.0485 30.1765 32.8589 30.1765 32.4799 30.1765H31.1661H29.8524H29.2838ZM38.6955 30.1765C38.6955 30.1765 38.6955 29.9869 38.6955 29.6078V28.2941V26.9804V26.4118H39.2642H40.5779H41.8916H42.4602C42.4602 26.4118 42.4602 26.6013 42.4602 26.9804V28.2941V29.6078V30.1765C42.4602 30.1765 42.2707 30.1765 41.8916 30.1765H40.5779H39.2642H38.6955ZM43.4152 60.7647C43.4152 60.7647 43.4152 60.5752 43.4152 60.1961V58.8824V57.5686V57H43.9838H45.2976H46.6113H47.1799C47.1799 57 47.1799 57.1895 47.1799 57.5686V58.8824V60.1961V60.7647C47.1799 60.7647 46.9904 60.7647 46.6113 60.7647H45.2976H43.9838H43.4152ZM45.7682 60.7647C45.7682 60.7647 45.7682 60.5752 45.7682 60.1961V58.8824V57.5686V57H46.3368H47.6505H48.9642H49.5329C49.5329 57 49.5329 57.1895 49.5329 57.5686V58.8824V60.1961V60.7647C49.5329 60.7647 49.3433 60.7647 48.9642 60.7647H47.6505H46.3368H45.7682ZM48.1211 60.7647C48.1211 60.7647 48.1211 60.5752 48.1211 60.1961V58.8824V57.5686V57H48.6897H50.0034H51.3172H51.8858C51.8858 57 51.8858 57.1895 51.8858 57.5686V58.8824V60.1961V60.7647C51.8858 60.7647 51.6963 60.7647 51.3172 60.7647H50.0034H48.6897H48.1211ZM50.474 60.7647C50.474 60.7647 50.474 60.5752 50.474 60.1961V58.8824V57.5686V57H51.0427H52.3564H53.6701H54.2387C54.2387 57 54.2387 57.1895 54.2387 57.5686V58.8824V60.1961V60.7647C54.2387 60.7647 54.0492 60.7647 53.6701 60.7647H52.3564H51.0427H50.474ZM52.827 60.7647C52.827 60.7647 52.827 60.5752 52.827 60.1961V58.8824V57.5686V57H53.3956H54.7093H56.0231H56.5917C56.5917 57 56.5917 57.1895 56.5917 57.5686V58.8824V60.1961V60.7647C56.5917 60.7647 56.4021 60.7647 56.0231 60.7647H54.7093H53.3956H52.827ZM55.1799 60.7647C55.1799 60.7647 55.1799 60.5752 55.1799 60.1961V58.8824V57.5686V57H55.7485H57.0623H58.376H58.9446C58.9446 57 58.9446 57.1895 58.9446 57.5686V58.8824V60.1961V60.7647C58.9446 60.7647 58.7551 60.7647 58.376 60.7647H57.0623H55.7485H55.1799ZM57.5329 60.7647C57.5329 60.7647 57.5329 60.5752 57.5329 60.1961V58.8824V57.5686V57H58.1015H59.4152H60.7289H61.2976C61.2976 57 61.2976 57.1895 61.2976 57.5686V58.8824V60.1961V60.7647C61.2976 60.7647 61.108 60.7647 60.7289 60.7647H59.4152H58.1015H57.5329ZM59.8858 60.7647C59.8858 60.7647 59.8858 60.5752 59.8858 60.1961V58.8824V57.5686V57H60.4544H61.7682H63.0819H63.6505C63.6505 57 63.6505 57.1895 63.6505 57.5686V58.8824V60.1961V60.7647C63.6505 60.7647 63.461 60.7647 63.0819 60.7647H61.7682H60.4544H59.8858ZM64.5963 53.7059C64.5963 53.7059 64.5963 53.5163 64.5963 53.1373V51.8235V50.5098V49.9412H65.1649H66.4786H67.7924H68.361C68.361 49.9412 68.361 50.1307 68.361 50.5098V51.8235V53.1373V53.7059C68.361 53.7059 68.1714 53.7059 67.7924 53.7059H66.4786H65.1649H64.5963ZM66.9492 53.7059C66.9492 53.7059 66.9492 53.5163 66.9492 53.1373V51.8235V50.5098V49.9412H67.5178H68.8316H70.1453H70.7139C70.7139 49.9412 70.7139 50.1307 70.7139 50.5098V51.8235V53.1373V53.7059C70.7139 53.7059 70.5244 53.7059 70.1453 53.7059H68.8316H67.5178H66.9492ZM69.3022 53.7059C69.3022 53.7059 69.3022 53.5163 69.3022 53.1373V51.8235V50.5098V49.9412H69.8708H71.1845H72.4982H73.0669C73.0669 49.9412 73.0669 50.1307 73.0669 50.5098V51.8235V53.1373V53.7059C73.0669 53.7059 72.8773 53.7059 72.4982 53.7059H71.1845H69.8708H69.3022ZM71.6551 53.7059C71.6551 53.7059 71.6551 53.5163 71.6551 53.1373V51.8235V50.5098V49.9412H72.2237H73.5375H74.8512H75.4198C75.4198 49.9412 75.4198 50.1307 75.4198 50.5098V51.8235V53.1373V53.7059C75.4198 53.7059 75.2303 53.7059 74.8512 53.7059H73.5375H72.2237H71.6551ZM64.5963 51.3529C64.5963 51.3529 64.5963 51.1634 64.5963 50.7843V49.4706V48.1569V47.5882H65.1649H66.4786H67.7924H68.361C68.361 47.5882 68.361 47.7778 68.361 48.1569V49.4706V50.7843V51.3529C68.361 51.3529 68.1714 51.3529 67.7924 51.3529H66.4786H65.1649H64.5963ZM74.008 51.3529C74.008 51.3529 74.008 51.1634 74.008 50.7843V49.4706V48.1569V47.5882H74.5767H75.8904H77.2041H77.7727C77.7727 47.5882 77.7727 47.7778 77.7727 48.1569V49.4706V50.7843V51.3529C77.7727 51.3529 77.5832 51.3529 77.2041 51.3529H75.8904H74.5767H74.008ZM64.5963 49C64.5963 49 64.5963 48.8105 64.5963 48.4314V47.1176V45.8039V45.2353H65.1649H66.4786H67.7924H68.361C68.361 45.2353 68.361 45.4248 68.361 45.8039V47.1176V48.4314V49C68.361 49 68.1714 49 67.7924 49H66.4786H65.1649H64.5963ZM74.008 49C74.008 49 74.008 48.8105 74.008 48.4314V47.1176V45.8039V45.2353H74.5767H75.8904H77.2041H77.7727C77.7727 45.2353 77.7727 45.4248 77.7727 45.8039V47.1176V48.4314V49C77.7727 49 77.5832 49 77.2041 49H75.8904H74.5767H74.008ZM64.5963 46.6471C64.5963 46.6471 64.5963 46.4575 64.5963 46.0784V44.7647V43.451V42.8824H65.1649H66.4786H67.7924H68.361C68.361 42.8824 68.361 43.0719 68.361 43.451V44.7647V46.0784V46.6471C68.361 46.6471 68.1714 46.6471 67.7924 46.6471H66.4786H65.1649H64.5963ZM74.008 46.6471C74.008 46.6471 74.008 46.4575 74.008 46.0784V44.7647V43.451V42.8824H74.5767H75.8904H77.2041H77.7727C77.7727 42.8824 77.7727 43.0719 77.7727 43.451V44.7647V46.0784V46.6471C77.7727 46.6471 77.5832 46.6471 77.2041 46.6471H75.8904H74.5767H74.008ZM64.5963 44.2941C64.5963 44.2941 64.5963 44.1046 64.5963 43.7255V42.4118V41.098V40.5294H65.1649H66.4786H67.7924H68.361C68.361 40.5294 68.361 40.719 68.361 41.098V42.4118V43.7255V44.2941C68.361 44.2941 68.1714 44.2941 67.7924 44.2941H66.4786H65.1649H64.5963ZM74.008 44.2941C74.008 44.2941 74.008 44.1046 74.008 43.7255V42.4118V41.098V40.5294H74.5767H75.8904H77.2041H77.7727C77.7727 40.5294 77.7727 40.719 77.7727 41.098V42.4118V43.7255V44.2941C77.7727 44.2941 77.5832 44.2941 77.2041 44.2941H75.8904H74.5767H74.008ZM64.5963 41.9412C64.5963 41.9412 64.5963 41.7516 64.5963 41.3725V40.0588V38.7451V38.1765H65.1649H66.4786H67.7924H68.361C68.361 38.1765 68.361 38.366 68.361 38.7451V40.0588V41.3725V41.9412C68.361 41.9412 68.1714 41.9412 67.7924 41.9412H66.4786H65.1649H64.5963ZM74.008 41.9412C74.008 41.9412 74.008 41.7516 74.008 41.3725V40.0588V38.7451V38.1765H74.5767H75.8904H77.2041H77.7727C77.7727 38.1765 77.7727 38.366 77.7727 38.7451V40.0588V41.3725V41.9412C77.7727 41.9412 77.5832 41.9412 77.2041 41.9412H75.8904H74.5767H74.008ZM64.5963 39.5882C64.5963 39.5882 64.5963 39.3987 64.5963 39.0196V37.7059V36.3922V35.8235H65.1649H66.4786H67.7924H68.361C68.361 35.8235 68.361 36.0131 68.361 36.3922V37.7059V39.0196V39.5882C68.361 39.5882 68.1714 39.5882 67.7924 39.5882H66.4786H65.1649H64.5963ZM74.008 39.5882C74.008 39.5882 74.008 39.3987 74.008 39.0196V37.7059V36.3922V35.8235H74.5767H75.8904H77.2041H77.7727C77.7727 35.8235 77.7727 36.0131 77.7727 36.3922V37.7059V39.0196V39.5882C77.7727 39.5882 77.5832 39.5882 77.2041 39.5882H75.8904H74.5767H74.008ZM64.5963 37.2353C64.5963 37.2353 64.5963 37.0457 64.5963 36.6667V35.3529V34.0392V33.4706H65.1649H66.4786H67.7924H68.361C68.361 33.4706 68.361 33.6601 68.361 34.0392V35.3529V36.6667V37.2353C68.361 37.2353 68.1714 37.2353 67.7924 37.2353H66.4786H65.1649H64.5963ZM74.008 37.2353C74.008 37.2353 74.008 37.0457 74.008 36.6667V35.3529V34.0392V33.4706H74.5767H75.8904H77.2041H77.7727C77.7727 33.4706 77.7727 33.6601 77.7727 34.0392V35.3529V36.6667V37.2353C77.7727 37.2353 77.5832 37.2353 77.2041 37.2353H75.8904H74.5767H74.008ZM64.5963 34.8824C64.5963 34.8824 64.5963 34.6928 64.5963 34.3137V33V31.6863V31.1176H65.1649H66.4786H67.7924H68.361C68.361 31.1176 68.361 31.3072 68.361 31.6863V33V34.3137V34.8824C68.361 34.8824 68.1714 34.8824 67.7924 34.8824H66.4786H65.1649H64.5963ZM74.008 34.8824C74.008 34.8824 74.008 34.6928 74.008 34.3137V33V31.6863V31.1176H74.5767H75.8904H77.2041H77.7727C77.7727 31.1176 77.7727 31.3072 77.7727 31.6863V33V34.3137V34.8824C77.7727 34.8824 77.5832 34.8824 77.2041 34.8824H75.8904H74.5767H74.008ZM64.5963 32.5294C64.5963 32.5294 64.5963 32.3399 64.5963 31.9608V30.6471V29.3333V28.7647H65.1649H66.4786H67.7924H68.361C68.361 28.7647 68.361 28.9542 68.361 29.3333V30.6471V31.9608V32.5294C68.361 32.5294 68.1714 32.5294 67.7924 32.5294H66.4786H65.1649H64.5963ZM74.008 32.5294C74.008 32.5294 74.008 32.3399 74.008 31.9608V30.6471V29.3333V28.7647H74.5767H75.8904H77.2041H77.7727C77.7727 28.7647 77.7727 28.9542 77.7727 29.3333V30.6471V31.9608V32.5294C77.7727 32.5294 77.5832 32.5294 77.2041 32.5294H75.8904H74.5767H74.008ZM64.5963 30.1765C64.5963 30.1765 64.5963 29.9869 64.5963 29.6078V28.2941V26.9804V26.4118H65.1649H66.4786H67.7924H68.361C68.361 26.4118 68.361 26.6013 68.361 26.9804V28.2941V29.6078V30.1765C68.361 30.1765 68.1714 30.1765 67.7924 30.1765H66.4786H65.1649H64.5963ZM66.9492 30.1765C66.9492 30.1765 66.9492 29.9869 66.9492 29.6078V28.2941V26.9804V26.4118H67.5178H68.8316H70.1453H70.7139C70.7139 26.4118 70.7139 26.6013 70.7139 26.9804V28.2941V29.6078V30.1765C70.7139 30.1765 70.5244 30.1765 70.1453 30.1765H68.8316H67.5178H66.9492ZM69.3022 30.1765C69.3022 30.1765 69.3022 29.9869 69.3022 29.6078V28.2941V26.9804V26.4118H69.8708H71.1845H72.4982H73.0669C73.0669 26.4118 73.0669 26.6013 73.0669 26.9804V28.2941V29.6078V30.1765C73.0669 30.1765 72.8773 30.1765 72.4982 30.1765H71.1845H69.8708H69.3022ZM71.6551 30.1765C71.6551 30.1765 71.6551 29.9869 71.6551 29.6078V28.2941V26.9804V26.4118H72.2237H73.5375H74.8512H75.4198C75.4198 26.4118 75.4198 26.6013 75.4198 26.9804V28.2941V29.6078V30.1765C75.4198 30.1765 75.2303 30.1765 74.8512 30.1765H73.5375H72.2237H71.6551ZM81.0807 53.7059C81.0807 53.7059 81.0807 53.5163 81.0807 53.1373V51.8235V50.5098V49.9412H81.6493H82.963H84.2767H84.8454C84.8454 49.9412 84.8454 50.1307 84.8454 50.5098V51.8235V53.1373V53.7059C84.8454 53.7059 84.6558 53.7059 84.2767 53.7059H82.963H81.6493H81.0807ZM83.4336 53.7059C83.4336 53.7059 83.4336 53.5163 83.4336 53.1373V51.8235V50.5098V49.9412H84.0022H85.3159H86.6297H87.1983C87.1983 49.9412 87.1983 50.1307 87.1983 50.5098V51.8235V53.1373V53.7059C87.1983 53.7059 87.0088 53.7059 86.6297 53.7059H85.3159H84.0022H83.4336ZM85.7865 53.7059C85.7865 53.7059 85.7865 53.5163 85.7865 53.1373V51.8235V50.5098V49.9412H86.3552H87.6689H88.9826H89.5512C89.5512 49.9412 89.5512 50.1307 89.5512 50.5098V51.8235V53.1373V53.7059C89.5512 53.7059 89.3617 53.7059 88.9826 53.7059H87.6689H86.3552H85.7865ZM88.1395 53.7059C88.1395 53.7059 88.1395 53.5163 88.1395 53.1373V51.8235V50.5098V49.9412H88.7081H90.0218H91.3356H91.9042C91.9042 49.9412 91.9042 50.1307 91.9042 50.5098V51.8235V53.1373V53.7059C91.9042 53.7059 91.7146 53.7059 91.3356 53.7059H90.0218H88.7081H88.1395ZM81.0807 51.3529C81.0807 51.3529 81.0807 51.1634 81.0807 50.7843V49.4706V48.1569V47.5882H81.6493H82.963H84.2767H84.8454C84.8454 47.5882 84.8454 47.7778 84.8454 48.1569V49.4706V50.7843V51.3529C84.8454 51.3529 84.6558 51.3529 84.2767 51.3529H82.963H81.6493H81.0807ZM81.0807 49C81.0807 49 81.0807 48.8105 81.0807 48.4314V47.1176V45.8039V45.2353H81.6493H82.963H84.2767H84.8454C84.8454 45.2353 84.8454 45.4248 84.8454 45.8039V47.1176V48.4314V49C84.8454 49 84.6558 49 84.2767 49H82.963H81.6493H81.0807ZM81.0807 46.6471C81.0807 46.6471 81.0807 46.4575 81.0807 46.0784V44.7647V43.451V42.8824H81.6493H82.963H84.2767H84.8454C84.8454 42.8824 84.8454 43.0719 84.8454 43.451V44.7647V46.0784V46.6471C84.8454 46.6471 84.6558 46.6471 84.2767 46.6471H82.963H81.6493H81.0807ZM81.0807 44.2941C81.0807 44.2941 81.0807 44.1046 81.0807 43.7255V42.4118V41.098V40.5294H81.6493H82.963H84.2767H84.8454C84.8454 40.5294 84.8454 40.719 84.8454 41.098V42.4118V43.7255V44.2941C84.8454 44.2941 84.6558 44.2941 84.2767 44.2941H82.963H81.6493H81.0807ZM81.0807 41.9412C81.0807 41.9412 81.0807 41.7516 81.0807 41.3725V40.0588V38.7451V38.1765H81.6493H82.963H84.2767H84.8454C84.8454 38.1765 84.8454 38.366 84.8454 38.7451V40.0588V41.3725V41.9412C84.8454 41.9412 84.6558 41.9412 84.2767 41.9412H82.963H81.6493H81.0807ZM83.4336 41.9412C83.4336 41.9412 83.4336 41.7516 83.4336 41.3725V40.0588V38.7451V38.1765H84.0022H85.3159H86.6297H87.1983C87.1983 38.1765 87.1983 38.366 87.1983 38.7451V40.0588V41.3725V41.9412C87.1983 41.9412 87.0088 41.9412 86.6297 41.9412H85.3159H84.0022H83.4336ZM85.7865 41.9412C85.7865 41.9412 85.7865 41.7516 85.7865 41.3725V40.0588V38.7451V38.1765H86.3552H87.6689H88.9826H89.5512C89.5512 38.1765 89.5512 38.366 89.5512 38.7451V40.0588V41.3725V41.9412C89.5512 41.9412 89.3617 41.9412 88.9826 41.9412H87.6689H86.3552H85.7865ZM88.1395 41.9412C88.1395 41.9412 88.1395 41.7516 88.1395 41.3725V40.0588V38.7451V38.1765H88.7081H90.0218H91.3356H91.9042C91.9042 38.1765 91.9042 38.366 91.9042 38.7451V40.0588V41.3725V41.9412C91.9042 41.9412 91.7146 41.9412 91.3356 41.9412H90.0218H88.7081H88.1395ZM81.0807 39.5882C81.0807 39.5882 81.0807 39.3987 81.0807 39.0196V37.7059V36.3922V35.8235H81.6493H82.963H84.2767H84.8454C84.8454 35.8235 84.8454 36.0131 84.8454 36.3922V37.7059V39.0196V39.5882C84.8454 39.5882 84.6558 39.5882 84.2767 39.5882H82.963H81.6493H81.0807ZM81.0807 37.2353C81.0807 37.2353 81.0807 37.0457 81.0807 36.6667V35.3529V34.0392V33.4706H81.6493H82.963H84.2767H84.8454C84.8454 33.4706 84.8454 33.6601 84.8454 34.0392V35.3529V36.6667V37.2353C84.8454 37.2353 84.6558 37.2353 84.2767 37.2353H82.963H81.6493H81.0807ZM81.0807 34.8824C81.0807 34.8824 81.0807 34.6928 81.0807 34.3137V33V31.6863V31.1176H81.6493H82.963H84.2767H84.8454C84.8454 31.1176 84.8454 31.3072 84.8454 31.6863V33V34.3137V34.8824C84.8454 34.8824 84.6558 34.8824 84.2767 34.8824H82.963H81.6493H81.0807ZM81.0807 32.5294C81.0807 32.5294 81.0807 32.3399 81.0807 31.9608V30.6471V29.3333V28.7647H81.6493H82.963H84.2767H84.8454C84.8454 28.7647 84.8454 28.9542 84.8454 29.3333V30.6471V31.9608V32.5294C84.8454 32.5294 84.6558 32.5294 84.2767 32.5294H82.963H81.6493H81.0807ZM81.0807 30.1765C81.0807 30.1765 81.0807 29.9869 81.0807 29.6078V28.2941V26.9804V26.4118H81.6493H82.963H84.2767H84.8454C84.8454 26.4118 84.8454 26.6013 84.8454 26.9804V28.2941V29.6078V30.1765C84.8454 30.1765 84.6558 30.1765 84.2767 30.1765H82.963H81.6493H81.0807ZM83.4336 30.1765C83.4336 30.1765 83.4336 29.9869 83.4336 29.6078V28.2941V26.9804V26.4118H84.0022H85.3159H86.6297H87.1983C87.1983 26.4118 87.1983 26.6013 87.1983 26.9804V28.2941V29.6078V30.1765C87.1983 30.1765 87.0088 30.1765 86.6297 30.1765H85.3159H84.0022H83.4336ZM85.7865 30.1765C85.7865 30.1765 85.7865 29.9869 85.7865 29.6078V28.2941V26.9804V26.4118H86.3552H87.6689H88.9826H89.5512C89.5512 26.4118 89.5512 26.6013 89.5512 26.9804V28.2941V29.6078V30.1765C89.5512 30.1765 89.3617 30.1765 88.9826 30.1765H87.6689H86.3552H85.7865ZM88.1395 30.1765C88.1395 30.1765 88.1395 29.9869 88.1395 29.6078V28.2941V26.9804V26.4118H88.7081H90.0218H91.3356H91.9042C91.9042 26.4118 91.9042 26.6013 91.9042 26.9804V28.2941V29.6078V30.1765C91.9042 30.1765 91.7146 30.1765 91.3356 30.1765H90.0218H88.7081H88.1395ZM98.7162 53.7059C98.7162 53.7059 98.7162 53.5163 98.7162 53.1373V51.8235V50.5098V49.9412H99.2849H100.599H101.912H102.481C102.481 49.9412 102.481 50.1307 102.481 50.5098V51.8235V53.1373V53.7059C102.481 53.7059 102.291 53.7059 101.912 53.7059H100.599H99.2849H98.7162ZM97.5398 51.3529C97.5398 51.3529 97.5398 51.1634 97.5398 50.7843V49.4706V48.1569V47.5882H98.1084H99.4221H100.736H101.304C101.304 47.5882 101.304 47.7778 101.304 48.1569V49.4706V50.7843V51.3529C101.304 51.3529 101.115 51.3529 100.736 51.3529H99.4221H98.1084H97.5398ZM99.8927 51.3529C99.8927 51.3529 99.8927 51.1634 99.8927 50.7843V49.4706V48.1569V47.5882H100.461H101.775H103.089H103.657C103.657 47.5882 103.657 47.7778 103.657 48.1569V49.4706V50.7843V51.3529C103.657 51.3529 103.468 51.3529 103.089 51.3529H101.775H100.461H99.8927ZM96.3633 49C96.3633 49 96.3633 48.8105 96.3633 48.4314V47.1176V45.8039V45.2353H96.9319H98.2456H99.5594H100.128C100.128 45.2353 100.128 45.4248 100.128 45.8039V47.1176V48.4314V49C100.128 49 99.9384 49 99.5594 49H98.2456H96.9319H96.3633ZM101.069 49C101.069 49 101.069 48.8105 101.069 48.4314V47.1176V45.8039V45.2353H101.638H102.952H104.265H104.834C104.834 45.2353 104.834 45.4248 104.834 45.8039V47.1176V48.4314V49C104.834 49 104.644 49 104.265 49H102.952H101.638H101.069ZM95.1868 46.6471C95.1868 46.6471 95.1868 46.4575 95.1868 46.0784V44.7647V43.451V42.8824H95.7554H97.0692H98.3829H98.9515C98.9515 42.8824 98.9515 43.0719 98.9515 43.451V44.7647V46.0784V46.6471C98.9515 46.6471 98.762 46.6471 98.3829 46.6471H97.0692H95.7554H95.1868ZM102.246 46.6471C102.246 46.6471 102.246 46.4575 102.246 46.0784V44.7647V43.451V42.8824H102.814H104.128H105.442H106.01C106.01 42.8824 106.01 43.0719 106.01 43.451V44.7647V46.0784V46.6471C106.01 46.6471 105.821 46.6471 105.442 46.6471H104.128H102.814H102.246ZM94.0103 44.2941C94.0103 44.2941 94.0103 44.1046 94.0103 43.7255V42.4118V41.098V40.5294H94.579H95.8927H97.2064H97.775C97.775 40.5294 97.775 40.719 97.775 41.098V42.4118V43.7255V44.2941C97.775 44.2941 97.5855 44.2941 97.2064 44.2941H95.8927H94.579H94.0103ZM103.422 44.2941C103.422 44.2941 103.422 44.1046 103.422 43.7255V42.4118V41.098V40.5294H103.991H105.304H106.618H107.187C107.187 40.5294 107.187 40.719 107.187 41.098V42.4118V43.7255V44.2941C107.187 44.2941 106.997 44.2941 106.618 44.2941H105.304H103.991H103.422ZM92.8339 41.9412C92.8339 41.9412 92.8339 41.7516 92.8339 41.3725V40.0588V38.7451V38.1765H93.4025H94.7162H96.0299H96.5986C96.5986 38.1765 96.5986 38.366 96.5986 38.7451V40.0588V41.3725V41.9412C96.5986 41.9412 96.409 41.9412 96.0299 41.9412H94.7162H93.4025H92.8339ZM104.599 41.9412C104.599 41.9412 104.599 41.7516 104.599 41.3725V40.0588V38.7451V38.1765H105.167H106.481H107.795H108.363C108.363 38.1765 108.363 38.366 108.363 38.7451V40.0588V41.3725V41.9412C108.363 41.9412 108.174 41.9412 107.795 41.9412H106.481H105.167H104.599ZM92.8339 39.5882C92.8339 39.5882 92.8339 39.3987 92.8339 39.0196V37.7059V36.3922V35.8235H93.4025H94.7162H96.0299H96.5986C96.5986 35.8235 96.5986 36.0131 96.5986 36.3922V37.7059V39.0196V39.5882C96.5986 39.5882 96.409 39.5882 96.0299 39.5882H94.7162H93.4025H92.8339ZM104.599 39.5882C104.599 39.5882 104.599 39.3987 104.599 39.0196V37.7059V36.3922V35.8235H105.167H106.481H107.795H108.363C108.363 35.8235 108.363 36.0131 108.363 36.3922V37.7059V39.0196V39.5882C108.363 39.5882 108.174 39.5882 107.795 39.5882H106.481H105.167H104.599ZM92.8339 37.2353C92.8339 37.2353 92.8339 37.0457 92.8339 36.6667V35.3529V34.0392V33.4706H93.4025H94.7162H96.0299H96.5986C96.5986 33.4706 96.5986 33.6601 96.5986 34.0392V35.3529V36.6667V37.2353C96.5986 37.2353 96.409 37.2353 96.0299 37.2353H94.7162H93.4025H92.8339ZM104.599 37.2353C104.599 37.2353 104.599 37.0457 104.599 36.6667V35.3529V34.0392V33.4706H105.167H106.481H107.795H108.363C108.363 33.4706 108.363 33.6601 108.363 34.0392V35.3529V36.6667V37.2353C108.363 37.2353 108.174 37.2353 107.795 37.2353H106.481H105.167H104.599ZM92.8339 34.8824C92.8339 34.8824 92.8339 34.6928 92.8339 34.3137V33V31.6863V31.1176H93.4025H94.7162H96.0299H96.5986C96.5986 31.1176 96.5986 31.3072 96.5986 31.6863V33V34.3137V34.8824C96.5986 34.8824 96.409 34.8824 96.0299 34.8824H94.7162H93.4025H92.8339ZM104.599 34.8824C104.599 34.8824 104.599 34.6928 104.599 34.3137V33V31.6863V31.1176H105.167H106.481H107.795H108.363C108.363 31.1176 108.363 31.3072 108.363 31.6863V33V34.3137V34.8824C108.363 34.8824 108.174 34.8824 107.795 34.8824H106.481H105.167H104.599ZM92.8339 32.5294C92.8339 32.5294 92.8339 32.3399 92.8339 31.9608V30.6471V29.3333V28.7647H93.4025H94.7162H96.0299H96.5986C96.5986 28.7647 96.5986 28.9542 96.5986 29.3333V30.6471V31.9608V32.5294C96.5986 32.5294 96.409 32.5294 96.0299 32.5294H94.7162H93.4025H92.8339ZM104.599 32.5294C104.599 32.5294 104.599 32.3399 104.599 31.9608V30.6471V29.3333V28.7647H105.167H106.481H107.795H108.363C108.363 28.7647 108.363 28.9542 108.363 29.3333V30.6471V31.9608V32.5294C108.363 32.5294 108.174 32.5294 107.795 32.5294H106.481H105.167H104.599ZM92.8339 30.1765C92.8339 30.1765 92.8339 29.9869 92.8339 29.6078V28.2941V26.9804V26.4118H93.4025H94.7162H96.0299H96.5986C96.5986 26.4118 96.5986 26.6013 96.5986 26.9804V28.2941V29.6078V30.1765C96.5986 30.1765 96.409 30.1765 96.0299 30.1765H94.7162H93.4025H92.8339ZM104.599 30.1765C104.599 30.1765 104.599 29.9869 104.599 29.6078V28.2941V26.9804V26.4118H105.167H106.481H107.795H108.363C108.363 26.4118 108.363 26.6013 108.363 26.9804V28.2941V29.6078V30.1765C108.363 30.1765 108.174 30.1765 107.795 30.1765H106.481H105.167H104.599Z" fill="url(#paint0_linear_43_57)"/>
<defs>
<linearGradient id="paint0_linear_43_57" x1="60" y1="0" x2="60" y2="80" gradientUnits="userSpaceOnUse">
<stop stop-color="#FCB483"/>
<stop offset="1" stop-color="#E05F06"/>
</linearGradient>
</defs>
</svg>
