<svg xmlns="http://www.w3.org/2000/svg" width="129" height="128" fill="none"><g clip-path="url(#a)"><path fill="#F4F2ED" d="M98.866 0h-68c-16.568 0-30 13.431-30 30v68c0 16.569 13.432 30 30 30h68c16.569 0 30-13.431 30-30V30c0-16.569-13.431-30-30-30Z"/><path fill="url(#b)" d="m87.26 48.702-.037-.015c-.02-.008-.041-.016-.06-.034a.285.285 0 0 1-.073-.243l2.016-12.325 9.455 9.456-9.833 4.184a.198.198 0 0 1-.086.015h-.039a.248.248 0 0 1-.052-.044 4.503 4.503 0 0 0-1.291-.994Zm13.713-.75 10.109 10.108c2.099 2.102 3.15 3.15 3.534 4.366.057.18.104.36.14.545L90.598 52.74l-.039-.016c-.096-.04-.209-.084-.209-.183 0-.099.115-.146.212-.185l.03-.013 10.381-4.392Zm13.371 18.263c-.521.98-1.538 1.998-3.26 3.722L99.687 81.33l-14.74-3.07-.079-.015c-.13-.02-.268-.044-.268-.162a4.449 4.449 0 0 0-1.709-3.11c-.06-.06-.044-.155-.026-.24 0-.014 0-.027.006-.037l2.772-17.02.01-.058c.016-.13.04-.281.157-.281a4.51 4.51 0 0 0 3.025-1.735c.024-.026.04-.055.07-.07.084-.04.183 0 .27.036l25.167 10.646h.002ZM97.066 83.952l-18.741 18.742 3.208-19.717.005-.026a.349.349 0 0 1 .016-.076c.026-.062.093-.088.159-.114l.03-.013a4.828 4.828 0 0 0 1.814-1.349c.062-.073.138-.143.234-.156a.251.251 0 0 1 .076 0l13.196 2.712.003-.003Zm-22.708 22.709-2.113 2.112L48.89 75.02l-.026-.037c-.036-.05-.075-.099-.067-.156.002-.042.028-.078.057-.11l.026-.033c.07-.105.13-.21.196-.321l.052-.092.008-.007c.036-.063.07-.123.133-.157.055-.026.13-.015.19-.002l25.874 5.336c.073.011.141.04.199.086.034.034.041.07.05.112a4.58 4.58 0 0 0 2.68 3.064c.073.037.042.118.008.204a.679.679 0 0 0-.04.117 46588.98 46588.98 0 0 0-3.872 23.637Zm-4.413 4.41c-1.557 1.541-2.475 2.357-3.513 2.686a5.211 5.211 0 0 1-3.145 0c-1.215-.386-2.266-1.434-4.366-3.536L35.467 86.767l6.126-9.502a.402.402 0 0 1 .105-.122c.065-.047.159-.026.237 0a6.343 6.343 0 0 0 4.272-.217c.07-.026.14-.044.196.006a.536.536 0 0 1 .073.083l23.47 34.058v-.002Zm-36.74-26.566-5.38-5.38 10.626-4.533a.2.2 0 0 1 .086-.018c.088 0 .14.089.188.17.106.164.22.324.339.48l.033.041c.032.044.01.089-.02.13l-5.869 9.11h-.002Zm-7.76-7.761-6.808-6.807c-1.157-1.158-1.997-1.998-2.582-2.72l20.698 4.293.078.013c.128.02.269.044.269.164 0 .13-.154.19-.285.24l-.06.026-11.31 4.79ZM14.865 63.717c.024-.439.103-.872.235-1.291.386-1.216 1.434-2.264 3.536-4.366l8.711-8.71c4.011 5.82 8.033 11.634 12.065 17.44.07.093.149.197.068.275-.38.42-.762.88-1.03 1.378a.414.414 0 0 1-.13.161c-.035.021-.07.013-.11.005h-.006l-23.339-4.895v.003Zm14.814-16.7 11.712-11.712c1.101.482 5.107 2.175 8.69 3.688 2.713 1.147 5.185 2.19 5.962 2.53.079.03.15.062.183.14.02.047.01.107 0 .157a5.23 5.23 0 0 0 1.364 4.767c.078.079 0 .19-.068.287l-.036.055-11.893 18.42a.35.35 0 0 1-.112.13c-.063.04-.151.022-.224.003a6.005 6.005 0 0 0-1.417-.193c-.427 0-.892.079-1.36.165h-.004c-.052.008-.099.018-.14-.013a.549.549 0 0 1-.118-.133l-12.54-18.29ZM43.758 32.94l15.163-15.163c2.1-2.1 3.15-3.15 4.366-3.534a5.216 5.216 0 0 1 3.145 0c1.216.384 2.267 1.435 4.366 3.534l3.286 3.286L63.3 37.764a.4.4 0 0 1-.107.125c-.065.045-.156.027-.235 0a5.471 5.471 0 0 0-5.007.965c-.07.073-.175.032-.264-.007-1.408-.613-12.362-5.242-13.929-5.908Zm32.616-9.587 9.957 9.958-2.399 14.86v.04a.397.397 0 0 1-.02.099c-.027.052-.08.062-.131.078a4.754 4.754 0 0 0-1.43.712.519.519 0 0 0-.052.044c-.028.031-.057.06-.104.065a.297.297 0 0 1-.112-.018l-15.174-6.447-.028-.013c-.097-.04-.211-.086-.211-.185a5.75 5.75 0 0 0-.809-2.387c-.073-.12-.154-.245-.091-.367l10.604-16.439ZM66.12 45.797l14.224 6.025c.079.036.165.07.199.15.013.05.013.1 0 .15a3.502 3.502 0 0 0-.079.685v.4c0 .099-.101.14-.195.18l-.029.01c-2.253.962-31.635 13.491-31.68 13.491-.044 0-.09 0-.135-.044-.078-.078 0-.188.07-.287l.037-.052 11.689-18.1.02-.031c.069-.11.147-.232.272-.232l.117.018c.266.036.501.07.738.07a5.28 5.28 0 0 0 4.408-2.34.452.452 0 0 1 .089-.103c.07-.053.174-.026.255.01ZM49.83 69.751l32.027-13.658s.047 0 .091.044c.175.175.324.292.467.402l.07.044c.066.037.131.079.136.146 0 .026 0 .042-.005.066l-2.744 16.853-.01.067c-.018.13-.037.28-.16.28a4.5 4.5 0 0 0-3.58 2.209l-.013.02c-.037.06-.07.118-.13.15-.055.025-.126.015-.183.002l-25.54-5.269c-.026-.005-.397-1.353-.426-1.356Z"/></g><defs><radialGradient id="b" cx="0" cy="0" r="1" gradientTransform="matrix(0 99.89 -115.326 0 11.592 62.631)" gradientUnits="userSpaceOnUse"><stop stop-color="#20C6B7"/><stop offset="1" stop-color="#4D9ABF"/></radialGradient><clipPath id="a"><path fill="#fff" d="M.866 0h128v128h-128z"/></clipPath></defs></svg>