<svg xmlns="http://www.w3.org/2000/svg" width="129" height="128" fill="none"><g clip-path="url(#a)"><path fill="#F4F2ED" d="M98.4 0h-68C13.83 0 .4 13.431.4 30v68c0 16.569 13.431 30 30 30h68c16.568 0 30-13.431 30-30V30c0-16.569-13.432-30-30-30Z"/><path fill="#000" d="M61.125 14.027c-.215.02-.9.088-1.515.137-14.203 1.28-27.507 8.944-35.934 20.723-4.691 6.55-7.693 13.978-8.826 21.848-.4 2.747-.45 3.559-.45 7.282 0 3.725.05 4.537.45 7.283 2.717 18.778 16.08 34.555 34.203 40.401 3.246 1.046 6.667 1.759 10.557 2.189 1.516.166 8.065.166 9.58 0 6.716-.743 12.405-2.404 18.016-5.269.86-.439 1.026-.557.909-.654-.078-.059-3.744-4.976-8.143-10.919l-7.996-10.802-10.02-14.828c-5.513-8.153-10.048-14.82-10.088-14.82-.039-.01-.078 6.579-.097 14.624-.03 14.086-.04 14.653-.215 14.985-.254.479-.45.675-.86.89-.313.156-.587.186-2.063.186h-1.691l-.45-.284a1.825 1.825 0 0 1-.655-.713l-.205-.44.02-19.6.029-19.608.303-.382c.156-.205.489-.469.723-.596.4-.195.557-.215 2.248-.215 1.995 0 2.327.078 2.845.645.147.156 5.572 8.328 12.063 18.172 6.571 9.963 13.147 19.924 19.726 29.882l7.918 11.995.4-.264c3.549-2.307 7.303-5.592 10.274-9.013 6.325-7.263 10.401-16.119 11.77-25.562.4-2.746.449-3.558.449-7.282 0-3.725-.049-4.536-.449-7.283-2.718-18.778-16.08-34.555-34.204-40.4-3.196-1.037-6.598-1.75-10.41-2.18-.939-.098-7.4-.205-8.211-.127m20.469 30.244c.469.235.85.684.987 1.153.078.255.098 5.69.078 17.938l-.03 17.576-3.098-4.751-3.108-4.751V58.661c0-8.26.039-12.904.097-13.129.157-.546.499-.976.968-1.231.4-.205.548-.225 2.082-.225 1.447 0 1.701.02 2.024.196Z"/></g><defs><clipPath id="a"><path fill="#fff" d="M.4 0h128v128H.4z"/></clipPath></defs></svg>