<svg xmlns="http://www.w3.org/2000/svg" width="129" height="128" fill="none"><g clip-path="url(#a)"><path fill="#F4F2ED" d="M98.133 0h-68c-16.568 0-30 13.431-30 30v68c0 16.569 13.432 30 30 30h68c16.569 0 30-13.431 30-30V30c0-16.569-13.431-30-30-30Z"/><path fill="#81CD39" d="M60.072 15.558c2.46-1.408 5.663-1.414 8.12 0 12.36 6.985 24.726 13.958 37.085 20.947 2.325 1.31 3.879 3.897 3.856 6.575v42.023c.017 2.79-1.691 5.438-4.144 6.718-12.32 6.946-24.635 13.901-36.953 20.847-2.51 1.435-5.777 1.325-8.21-.228-3.693-2.141-7.393-4.272-11.087-6.411-.755-.45-1.606-.808-2.139-1.54.472-.635 1.314-.714 1.999-.992 1.541-.49 2.958-1.277 4.374-2.041.358-.245.795-.151 1.139.068 3.158 1.811 6.29 3.675 9.458 5.469.676.39 1.36-.128 1.939-.45 12.09-6.834 24.195-13.64 36.283-20.476.448-.216.696-.691.659-1.182.009-13.862.002-27.727.005-41.59a1.3 1.3 0 0 0-.775-1.296c-12.277-6.914-24.55-13.839-36.825-20.755a1.28 1.28 0 0 0-1.446-.002c-12.276 6.918-24.545 13.85-36.82 20.763-.502.229-.839.732-.78 1.29.003 13.863 0 27.728 0 41.592a1.175 1.175 0 0 0 .669 1.167c3.275 1.858 6.555 3.702 9.833 5.554 1.847.993 4.114 1.584 6.15.823 1.794-.644 3.053-2.477 3.019-4.383.017-13.781-.009-27.565.012-41.345-.045-.611.536-1.117 1.13-1.059 1.575-.01 3.15-.021 4.725.004.657-.015 1.109.644 1.028 1.26-.007 13.87.017 27.738-.01 41.607.003 3.696-1.515 7.718-4.934 9.527-4.212 2.181-9.418 1.719-13.579-.373-3.602-1.798-7.04-3.92-10.578-5.846-2.459-1.273-4.159-3.932-4.141-6.72V43.08c-.026-2.734 1.59-5.368 3.987-6.658 12.319-6.952 24.635-13.91 36.951-20.864Z"/><path fill="#81CD39" d="M70.82 44.667c5.372-.346 11.123-.205 15.958 2.442 3.743 2.029 5.818 6.285 5.884 10.444-.104.56-.69.87-1.226.832-1.559-.002-3.118.021-4.677-.011-.661.026-1.045-.584-1.128-1.169-.448-1.99-1.534-3.96-3.406-4.92-2.875-1.439-6.208-1.366-9.344-1.336-2.288.12-4.749.319-6.688 1.665-1.488 1.019-1.94 3.077-1.41 4.735.502 1.19 1.875 1.574 3 1.928 6.474 1.693 13.335 1.524 19.686 3.752 2.63.909 5.202 2.675 6.102 5.428 1.177 3.69.661 8.1-1.964 11.063-2.13 2.437-5.23 3.764-8.322 4.484-4.114.918-8.384.941-12.562.534-3.928-.448-8.017-1.48-11.05-4.156-2.593-2.253-3.86-5.761-3.734-9.148.03-.572.6-.97 1.148-.923 1.57-.013 3.14-.018 4.709.002.627-.045 1.092.497 1.124 1.088.29 1.895 1.002 3.886 2.655 5.009 3.19 2.059 7.194 1.918 10.847 1.975 3.026-.134 6.423-.175 8.893-2.175 1.303-1.141 1.69-3.05 1.337-4.692-.381-1.386-1.832-2.032-3.077-2.455-6.392-2.022-13.33-1.288-19.66-3.575-2.57-.907-5.054-2.624-6.041-5.264-1.378-3.737-.747-8.359 2.154-11.22 2.828-2.848 6.91-3.944 10.791-4.337Z"/></g><defs><clipPath id="a"><path fill="#fff" d="M.133 0h128v128h-128z"/></clipPath></defs></svg>