<svg xmlns="http://www.w3.org/2000/svg" width="129" height="128" fill="none"><g clip-path="url(#a)"><path fill="#F4F2ED" d="M98.267 0h-68c-16.569 0-30 13.431-30 30v68c0 16.569 13.431 30 30 30h68c16.568 0 30-13.431 30-30V30c0-16.569-13.432-30-30-30Z"/><path fill="#00D8FF" d="M64.267 73.475a9.328 9.328 0 0 0 9.328-9.328 9.328 9.328 0 1 0-9.328 9.328Z"/><path stroke="#00D8FF" stroke-width="8.911" d="M64.268 45.181c12.524 0 24.158 1.797 32.93 4.818 10.57 3.639 17.069 9.154 17.069 14.148 0 5.205-6.887 11.064-18.238 14.825-8.58 2.843-19.873 4.327-31.761 4.327-12.19 0-23.732-1.393-32.41-4.359-10.979-3.752-17.591-9.687-17.591-14.793 0-4.954 6.205-10.427 16.626-14.06 8.805-3.07 20.726-4.906 33.373-4.906h.002Z"/><path stroke="#00D8FF" stroke-width="8.911" d="M47.757 54.719c6.257-10.849 13.626-20.03 20.625-26.12 8.432-7.338 16.457-10.212 20.783-7.718 4.508 2.6 6.144 11.494 3.731 23.205-1.822 8.854-6.18 19.377-12.119 29.675-6.09 10.56-13.062 19.863-19.965 25.897-8.736 7.635-17.181 10.399-21.604 7.848-4.291-2.473-5.932-10.583-3.873-21.425 1.74-9.162 6.105-20.407 12.42-31.362h.002Z"/><path stroke="#00D8FF" stroke-width="8.911" d="M47.773 73.789c-6.275-10.837-10.547-21.808-12.33-30.913-2.146-10.97-.629-19.358 3.694-21.86 4.504-2.608 13.026.417 21.966 8.356 6.76 6.002 13.702 15.03 19.658 25.32 6.108 10.548 10.684 21.236 12.465 30.23 2.253 11.382.43 20.079-3.989 22.636-4.287 2.482-12.132-.145-20.498-7.344-7.068-6.082-14.63-15.48-20.967-26.425Z"/></g><defs><clipPath id="a"><path fill="#fff" d="M.267 0h128v128h-128z"/></clipPath></defs></svg>