<svg xmlns="http://www.w3.org/2000/svg" width="129" height="128" fill="none"><g clip-path="url(#a)"><path fill="#007ACC" d="M98.333 0h-68c-16.569 0-30 13.431-30 30v68c0 16.569 13.431 30 30 30h68c16.569 0 30-13.431 30-30V30c0-16.569-13.431-30-30-30Z"/><path fill="#fff" d="m28.639 64.424-.04 5.242h16.66v47.34h11.784v-47.34h16.66v-5.14c0-2.844-.06-5.221-.142-5.282-.061-.081-10.2-.123-22.492-.102l-22.37.061-.06 5.221Zm74.978-5.37c3.25.813 5.729 2.255 8.005 4.612 1.178 1.26 2.925 3.556 3.068 4.105.04.162-5.527 3.9-8.899 5.993-.122.082-.61-.447-1.159-1.26-1.645-2.397-3.372-3.434-6.014-3.616-3.88-.264-6.38 1.767-6.359 5.16 0 .996.142 1.585.549 2.398.853 1.767 2.438 2.824 7.416 4.978 9.163 3.941 13.084 6.542 15.522 10.24 2.723 4.124 3.332 10.707 1.483 15.604-2.031 5.323-7.07 8.939-14.161 10.138-2.194.386-7.396.325-9.752-.101-5.14-.915-10.017-3.454-13.024-6.786-1.178-1.301-3.474-4.694-3.332-4.938.06-.081.59-.406 1.178-.751.57-.325 2.723-1.565 4.755-2.743l3.677-2.134.772 1.138c1.077 1.646 3.434 3.901 4.856 4.653 4.084 2.154 9.692 1.849 12.455-.63 1.178-1.077 1.666-2.194 1.666-3.84 0-1.484-.183-2.133-.955-3.251-.996-1.422-3.027-2.621-8.798-5.12-6.603-2.845-9.447-4.612-12.048-7.416-1.503-1.625-2.926-4.226-3.515-6.4-.487-1.808-.61-6.339-.223-8.168 1.36-6.379 6.176-10.828 13.125-12.15 2.255-.426 7.497-.264 9.712.285Z"/></g><defs><clipPath id="a"><path fill="#fff" d="M.333 0h128v128h-128z"/></clipPath></defs></svg>