<svg xmlns="http://www.w3.org/2000/svg" width="129" height="128" fill="none"><g clip-path="url(#a)"><path fill="#F4F2ED" d="M98.933 0h-68c-16.568 0-30 13.431-30 30v68c0 16.569 13.432 30 30 30h68c16.569 0 30-13.431 30-30V30c0-16.569-13.431-30-30-30Z"/><path fill="#2489CA" d="M17.791 50.104s-2.367-1.706.474-3.985l6.617-5.918s1.894-1.992 3.896-.257l61.075 46.24v22.173s-.03 3.482-4.498 3.097l-67.564-61.35Z"/><path fill="#1070B3" d="M33.533 64.396 17.79 78.707s-1.618 1.204 0 3.355l7.308 6.647s1.736 1.864 4.3-.257l16.69-12.654-12.556-11.402Z"/><path fill="#0877B9" d="M61.17 64.514 90.04 42.47l-.187-22.055s-1.233-4.813-5.346-2.308L46.089 53.072l15.08 11.442Z"/><path fill="#3C99D4" d="M85.355 111.484c1.677 1.716 3.71 1.154 3.71 1.154l22.498-11.087c2.88-1.963 2.475-4.398 2.475-4.398V30.949c0-2.91-2.979-3.916-2.979-3.916l-19.5-9.4c-4.26-2.633-7.052.474-7.052.474s3.59-2.584 5.346 2.308v87.537a4.003 4.003 0 0 1-.384 1.727c-.513 1.035-1.628 2.002-4.3 1.597l.186.208Z"/></g><defs><clipPath id="a"><path fill="#fff" d="M.933 0h128v128h-128z"/></clipPath></defs></svg>